# xmcd
#
# Track frame offsets:
#	150
#	17842
#	33400
#	49269
#	66412
#	84571
#	98460
#	114855
#	132183
#	146062
#	160124
#	177932
#	196715
#	213975
#	227715
#
# Disc length: 3238 seconds
#
# Revision: 0
# Processed by: cddbd v1.5.2PL0 Copyright (c) Steve Scherf et al.
# Submitted via: EasyCDDAExtractor 2011.0.0.0
#
DISCID=c40ca40f
DTITLE=박홍래 - 향수에 젖어드는 하모니카 and 클라리넷
DYEAR=2014
DGENRE=Blues
TTITLE0=김태영 - 혼자만의 사랑
TTITLE1=조덕배 - 그대 내 맘에 들어오면
TTITLE2=임주리 - 립스틱 짙게 바르고
TTITLE3=김추자 - 님은 먼 곳에
TTITLE4=김수희 - 애모
TTITLE5=최백호 - 내 마음 갈 곳을 잃어
TTITLE6=노사연 - 만남
TTITLE7=이선희 - J에게
TTITLE8=주병선 - 칠갑산
TTITLE9=김정호 - 날이 갈수록
TTITLE10=해바라기 - 이젠 사랑할 수 있어요
TTITLE11=최성수 - 해후
TTITLE12=김연숙 - 그날
TTITLE13=패티김 - 가을을 남기고 간 사랑
TTITLE14=김종환 - 사랑을 뤼하여
EXTD=
EXTT0=
EXTT1=
EXTT2=
EXTT3=
EXTT4=
EXTT5=
EXTT6=
EXTT7=
EXTT8=
EXTT9=
EXTT10=
EXTT11=
EXTT12=
EXTT13=
EXTT14=
PLAYORDER=
